<svg width="60" height="60" viewBox="0 0 60 60" fill="none" xmlns="http://www.w3.org/2000/svg">
<path fill-rule="evenodd" clip-rule="evenodd" d="M24.288 35.376L35.472 16.176C35.472 16.176 30.72 14.544 30.528 14.544C30.336 14.544 22.224 17.28 22.224 17.28C22.224 17.28 19.2 23.04 19.2 23.184C19.2 23.328 19.2 30.096 19.2 30.096C19.2 30.096 21.168 33.36 21.312 33.456C21.456 33.552 24.288 35.376 24.288 35.376Z" fill="#FFE241"/>
<path d="M30 13.584C23.088 13.584 17.472 19.2 17.472 26.112C17.472 33.024 23.088 38.64 30 38.64C36.912 38.64 42.528 33.024 42.528 26.112C42.528 19.2 36.912 13.584 30 13.584ZM40.32 26.112C40.32 31.824 35.664 36.432 30 36.432C24.336 36.432 19.68 31.824 19.68 26.112C19.68 20.4 24.336 15.792 30 15.792C35.664 15.792 40.32 20.4 40.32 26.112Z" fill="#1A1A1A"/>
<path d="M30 60C13.44 60 0 46.56 0 30C0 13.44 13.44 0 30 0C46.56 0 60 13.44 60 30C60 46.56 46.56 60 30 60ZM30 2.4C14.784 2.4 2.4 14.784 2.4 30C2.4 45.216 14.784 57.6 30 57.6C45.216 57.6 57.6 45.216 57.6 30C57.6 14.784 45.216 2.4 30 2.4Z" fill="black"/>
<path d="M40.128 33.456C39.648 34.128 39.12 34.704 38.544 35.232C44.496 37.872 49.056 43.248 50.544 49.776L52.464 48C50.544 41.616 46.032 36.336 40.128 33.456Z" fill="#1A1A1A"/>
<path d="M21.456 35.28C20.88 34.752 20.352 34.128 19.872 33.504C14.064 36.288 9.59999 41.424 7.67999 47.712C8.25599 48.336 8.92799 49.008 9.55199 49.632C11.04 43.2 15.552 37.92 21.456 35.28Z" fill="#1A1A1A"/>
</svg>
