<svg width="18" height="15" viewBox="0 0 18 15" fill="none" xmlns="http://www.w3.org/2000/svg">
<g clip-path="url(#clip0_2_795)">
<path fill-rule="evenodd" clip-rule="evenodd" d="M5.50004 13.9332L10.6334 5.09985L0.600037 5.33319C0.600037 5.33319 2.40004 14.4665 2.63337 14.5999C2.8667 14.7332 5.50004 13.9332 5.50004 13.9332Z" fill="#FFE241"/>
<path d="M6.54083 12.496L6.54083 6.96265H5.17417L5.17417 12.496H6.54083Z" fill="white"/>
<path d="M9.63196 12.4716L9.63196 6.93823H8.26529L8.26529 12.4716H9.63196Z" fill="white"/>
<path d="M12.723 12.4804L12.723 6.94702H11.3564L11.3564 12.4804H12.723Z" fill="white"/>
<path d="M13.3667 4.43333L11.3667 0L10.1 0.566667L11.8333 4.43333H6.03333L7.76667 0.566667L6.53333 0L4.53333 4.43333H0V5.8L2.1 15H15.7667L17.8667 5.83333V4.46667H13.3667V4.43333ZM14.7 13.6333H3.2L1.4 5.8H16.4667L14.7 13.6333Z" fill="white"/>
</g>
<defs>
<clipPath id="clip0_2_795">
<rect width="17.9" height="15" fill="white"/>
</clipPath>
</defs>
</svg>
