<svg width="9" height="12" viewBox="0 0 9 12" fill="none" xmlns="http://www.w3.org/2000/svg">
<path d="M8.71084 10.6517L6.9041 7.65843C6.9041 7.65843 5.44792 8.38652 5.09735 8.60225C4.98949 8.65618 4.93556 8.65618 4.85466 8.57528C4.71983 8.41348 4.53106 8.30562 4.39623 8.14382C3.74904 7.41573 3.29061 6.57978 2.91309 5.68989C2.72432 5.25843 2.58949 4.8 2.53556 4.31461C2.53556 4.20674 2.53556 4.15281 2.64342 4.09888C2.99398 3.91011 4.3423 3.12809 4.3423 3.12809L2.75129 0C2.75129 0 1.24118 0.701124 0.890614 0.889888C0.567018 1.05169 0.351288 1.32135 0.216456 1.67191C0.000726181 2.21124 -0.0262401 2.77753 0.0276925 3.37079C0.108591 4.58427 0.432187 5.71685 0.91758 6.82247C1.56477 8.30562 2.48162 9.62697 3.69511 10.7056C4.23443 11.191 4.82769 11.6225 5.52882 11.8921C6.01421 12.0539 6.47264 12.0539 6.93106 11.7843C7.22769 11.5955 8.71084 10.6517 8.71084 10.6517Z" fill="white"/>
</svg>
