<svg width="38" height="30" viewBox="0 0 38 30" fill="none" xmlns="http://www.w3.org/2000/svg">
<g clip-path="url(#clip0_2_1405)">
<path fill-rule="evenodd" clip-rule="evenodd" d="M16.8334 12.125L23.0834 1.41667C23.0834 1.41667 20.4584 0.5 20.3334 0.5C20.2084 0.5 15.6667 2.04167 15.6667 2.04167C15.6667 2.04167 14.0001 5.25 14.0001 5.33333C14.0001 5.41667 14.0001 9.16667 14.0001 9.16667C14.0001 9.16667 15.0834 11 15.1667 11.0417C15.2501 11.125 16.8334 12.125 16.8334 12.125Z" fill="#FFE241"/>
<path fill-rule="evenodd" clip-rule="evenodd" d="M4.45839 12.5833L9.08339 4.66667C9.08339 4.66667 7.12506 4 7.04173 4C6.95839 4 3.62506 5.125 3.62506 5.125C3.62506 5.125 2.37506 7.5 2.37506 7.54167C2.37506 7.58333 2.37506 10.375 2.37506 10.375C2.37506 10.375 3.20839 11.7083 3.25006 11.75C3.25006 11.8333 4.45839 12.5833 4.45839 12.5833Z" fill="#FFE241"/>
<path d="M27 13.9583V28.3333H1.625V13.9583H27ZM28.625 12.3333H0V29.9583H28.625V12.3333Z" fill="#1A1A1A"/>
<path d="M6.79173 5.20825C8.75006 5.20825 10.3334 6.79159 10.3334 8.74992C10.3334 10.7083 8.75006 12.2916 6.79173 12.2916C4.83339 12.2916 3.25006 10.7083 3.25006 8.74992C3.25006 6.79159 4.83339 5.20825 6.79173 5.20825ZM6.79173 3.58325C3.95839 3.58325 1.62506 5.91659 1.62506 8.74992C1.62506 11.6249 3.95839 13.9166 6.79173 13.9166C9.62506 13.9166 11.9584 11.6249 11.9584 8.74992C11.9584 5.91659 9.66673 3.58325 6.79173 3.58325Z" fill="#1A1A1A"/>
<path d="M20.0416 1.625C23 1.625 25.375 4.04167 25.375 6.95833C25.375 9.875 22.9583 12.2917 20.0416 12.2917C17.0833 12.2917 14.7083 9.875 14.7083 6.95833C14.7083 4.04167 17.0833 1.625 20.0416 1.625ZM20.0416 0C16.2083 0 13.0833 3.125 13.0833 6.95833C13.0833 10.7917 16.2083 13.9167 20.0416 13.9167C23.875 13.9167 27 10.7917 27 6.95833C27 3.125 23.875 0 20.0416 0Z" fill="#1A1A1A"/>
<path d="M37.1666 30L28.0833 25.6667L28.2916 24L35.5416 27.4583V14.5417L28.375 18.125L28.0833 16.4583L37.1666 12V30Z" fill="#1A1A1A"/>
</g>
<defs>
<clipPath id="clip0_2_1405">
<rect width="37.1667" height="30" fill="white"/>
</clipPath>
</defs>
</svg>
