<svg width="35" height="30" viewBox="0 0 35 30" fill="none" xmlns="http://www.w3.org/2000/svg">
<g clip-path="url(#clip0_2_1342)">
<path fill-rule="evenodd" clip-rule="evenodd" d="M12.9352 16.0113L21.1515 1.89608C21.1515 1.89608 17.6543 0.716309 17.4857 0.716309C17.3172 0.716309 11.4183 2.73878 11.4183 2.73878C11.4183 2.73878 9.18518 6.95226 9.18518 7.07867C9.18518 7.20507 9.18518 12.1348 9.18518 12.1348C9.18518 12.1348 10.6178 14.5365 10.7442 14.6208C10.8706 14.6629 12.9352 16.0113 12.9352 16.0113Z" fill="#FFE241"/>
<path d="M17.1487 0C12.0925 0 7.96332 4.12921 7.96332 9.18539C7.96332 14.2416 12.0925 18.3708 17.1487 18.3708C22.2049 18.3708 26.3341 14.2416 26.3341 9.18539C26.3341 4.12921 22.2049 0 17.1487 0ZM24.733 9.18539C24.733 13.3567 21.3201 16.7697 17.1487 16.7697C12.9774 16.7697 9.56444 13.3567 9.56444 9.18539C9.56444 5.01404 12.9774 1.60112 17.1487 1.60112C21.3201 1.60112 24.733 5.01404 24.733 9.18539Z" fill="#1A1A1A"/>
<path d="M24.5647 14.5786C24.2276 15.0421 23.8062 15.5056 23.3849 15.8848C28.7781 18.2865 32.5703 23.6797 32.5703 29.9578H34.2557C34.2557 23.2163 30.295 17.3595 24.5647 14.5786Z" fill="#1A1A1A"/>
<path d="M9.69101 14.5786C3.96067 17.3595 0 23.2163 0 30H1.68539C1.68539 23.7219 5.47753 18.3286 10.8708 15.9269C10.4494 15.5056 10.0281 15.0842 9.69101 14.5786Z" fill="#1A1A1A"/>
</g>
<defs>
<clipPath id="clip0_2_1342">
<rect width="34.2556" height="30" fill="white"/>
</clipPath>
</defs>
</svg>
