<svg width="38" height="30" viewBox="0 0 38 30" fill="none" xmlns="http://www.w3.org/2000/svg">
<g clip-path="url(#clip0_2_1337)">
<path fill-rule="evenodd" clip-rule="evenodd" d="M14.6853 22.7833L22.8671 8.72732C22.8671 8.72732 19.3846 7.55249 19.2168 7.55249C19.0489 7.55249 13.1328 9.56648 13.1328 9.56648C13.1328 9.56648 10.9091 13.7623 10.9091 13.8882C10.9091 14.014 10.9091 18.9231 10.9091 18.9231C10.9091 18.9231 12.3356 21.3147 12.4615 21.3986C12.6293 21.4826 14.6853 22.7833 14.6853 22.7833Z" fill="#FFE241"/>
<path d="M18.8811 6.83911C13.8461 6.83911 9.73425 10.951 9.73425 15.986C9.73425 21.0209 13.8042 25.1748 18.8811 25.1748C23.958 25.1748 28.028 21.0629 28.028 16.0279C28.028 10.993 23.9161 6.83911 18.8811 6.83911ZM26.4336 15.986C26.4336 20.1398 23.035 23.5384 18.8811 23.5384C14.7273 23.5384 11.3287 20.1398 11.3287 15.986C11.3287 11.8321 14.7273 8.43352 18.8811 8.43352C23.035 8.43352 26.4336 11.8321 26.4336 15.986Z" fill="#1A1A1A"/>
<path d="M27.6923 3.86014L25.1329 0H12.7552L10.0699 3.86014H8.05595V0.881119H2.6014V3.86014H0V30H37.7203V3.86014H27.6923ZM6.46154 2.47552V3.86014H4.1958V2.47552H6.46154ZM24.2098 1.63636L26.5594 5.16084C26.7273 5.37063 26.979 5.53846 27.2308 5.53846H36.0839V28.4056H1.63636V5.4965H10.4895C10.7832 5.4965 11.035 5.37063 11.1608 5.11888L13.5105 1.59441H24.2098V1.63636Z" fill="#1A1A1A"/>
</g>
<defs>
<clipPath id="clip0_2_1337">
<rect width="37.7203" height="30" fill="white"/>
</clipPath>
</defs>
</svg>
