<svg width="65" height="30" viewBox="0 0 65 30" fill="none" xmlns="http://www.w3.org/2000/svg">
<g clip-path="url(#clip0_2_822)">
<path fill-rule="evenodd" clip-rule="evenodd" d="M33.8547 12.4861H26.1033V19.1481H29.958L33.8547 12.4861Z" fill="#FFE241"/>
<path fill-rule="evenodd" clip-rule="evenodd" d="M15.419 6.70386H10.7682V13.3659L11.5643 12.7374L15.419 6.70386Z" fill="#FFE241"/>
<path fill-rule="evenodd" clip-rule="evenodd" d="M53.5895 6.70386H48.8967L48.9386 13.3659L49.7347 12.7374L53.5895 6.70386Z" fill="#FFE241"/>
<path d="M64.3156 3.72905V2.09497H52.081V0H50.4469V2.09497H38.1704V3.72905H50.405V5.06983H48.2682V9.21788H42.9469V7.03911H21.3268V9.21788H16.0056V5.06983H13.8687V3.72905H26.1033V2.09497H13.8687V0H12.2346V2.09497H0V3.72905H12.2346V5.06983H10.0978V14.9581H16.0056V10.8101H21.3268V12.9888H25.433V16.1732H22.2905L19.2737 28.324H17.1369V29.9581H23.0866V28.324H20.9078L23.5475 17.8073H25.433V18.352V19.986H27.067H37.2905H38.9246V18.352V17.8073H40.8101L43.4497 28.324H41.271V29.9581H47.2207V28.324H45.0838L42.1089 16.1732H38.9665V12.9888H43.0726V10.8101H48.3939V14.9581H54.3017V5.06983H52.1648V3.72905H64.3156ZM14.3715 13.3659H11.7318V6.70391H14.3715V13.3659ZM37.2486 18.352H27.067V13.0307H37.2905V18.352H37.2486ZM41.3547 11.3966H22.919V8.67318H41.3547V11.3966ZM52.5838 13.3659H49.9441V6.70391H52.5838V13.3659Z" fill="#1A1A1A"/>
</g>
<defs>
<clipPath id="clip0_2_822">
<rect width="64.3156" height="30" fill="white"/>
</clipPath>
</defs>
</svg>
