<svg width="30" height="30" viewBox="0 0 30 30" fill="none" xmlns="http://www.w3.org/2000/svg">
<g clip-path="url(#clip0_2_842)">
<path fill-rule="evenodd" clip-rule="evenodd" d="M14.1818 4.82516L16.4895 0.881104C16.4895 0.881104 0.923096 1.30068 0.923096 1.3846C0.923096 1.46852 0.923096 4.74124 0.923096 4.74124L14.1818 4.82516Z" fill="#FFE241"/>
<path d="M0 0V5.45455H1.00699V23.4126H0V25.049H14.1818V25.9301C13.4266 26.2657 12.8811 26.979 12.8811 27.8601C12.8811 29.035 13.8042 29.958 14.979 29.958C16.1538 29.958 17.0769 29.035 17.0769 27.8601C17.0769 26.979 16.5315 26.2238 15.7762 25.9301V25.049H29.958V23.4126H28.951V5.45455H29.958V0H0ZM14.979 28.4056C14.6853 28.4056 14.4755 28.1958 14.4755 27.9021C14.4755 27.6084 14.6853 27.3986 14.979 27.3986C15.2727 27.3986 15.4825 27.6084 15.4825 27.9021C15.4825 28.1538 15.2727 28.4056 14.979 28.4056ZM27.3566 23.4126H2.64336V5.45455H27.3566V23.4126ZM28.3636 3.81818H1.63636V1.63636H28.3636V3.81818Z" fill="#1A1A1A"/>
<path d="M14.979 9.81828C17.5384 9.81828 19.5943 11.8742 19.5943 14.4337C19.5943 16.9931 17.5384 19.0491 14.979 19.0491C12.4195 19.0491 10.3636 16.9931 10.3636 14.4337C10.3636 11.8742 12.4195 9.81828 14.979 9.81828ZM14.979 8.22388C11.5384 8.22388 8.76917 10.9931 8.76917 14.4337C8.76917 17.8742 11.5384 20.6435 14.979 20.6435C18.4195 20.6435 21.1887 17.8742 21.1887 14.4337C21.1887 10.9931 18.4195 8.22388 14.979 8.22388Z" fill="#1A1A1A"/>
<path d="M16.951 14.4335L13.5104 12.2097V16.6573L16.951 14.4335Z" fill="#1A1A1A"/>
</g>
<defs>
<clipPath id="clip0_2_842">
<rect width="29.958" height="30" fill="white"/>
</clipPath>
</defs>
</svg>
