<svg width="30" height="30" viewBox="0 0 30 30" fill="none" xmlns="http://www.w3.org/2000/svg">
<g clip-path="url(#clip0_2_830)">
<path fill-rule="evenodd" clip-rule="evenodd" d="M11.4575 20.9926L18.6183 8.70616C18.6183 8.70616 15.6032 7.65088 15.4524 7.65088C15.3017 7.65088 10.1384 9.42224 10.1384 9.42224C10.1384 9.42224 8.21625 13.1157 8.21625 13.1911C8.21625 13.3041 8.21625 17.6006 8.21625 17.6006C8.21625 17.6006 9.45997 19.6735 9.57303 19.7489C9.6861 19.8242 11.4575 20.9926 11.4575 20.9926Z" fill="#FFE241"/>
<path d="M21.3693 30H8.63065C3.88191 30 0 26.1181 0 21.3693V8.63065C0 3.88191 3.88191 0 8.63065 0H21.407C26.1558 0 30.0377 3.88191 30.0377 8.63065V21.407C30 26.1181 26.1181 30 21.3693 30ZM8.63065 1.50754C4.71106 1.50754 1.50754 4.71106 1.50754 8.63065V21.407C1.50754 25.3266 4.71106 28.5301 8.63065 28.5301H21.407C25.3266 28.5301 28.5301 25.3266 28.5301 21.407V8.63065C28.4925 4.71106 25.2889 1.50754 21.3693 1.50754H8.63065Z" fill="black"/>
<path d="M14.9998 22.7637C10.741 22.7637 7.23602 19.2964 7.23602 14.9999C7.23602 10.7411 10.7034 7.23608 14.9998 7.23608C19.2963 7.23608 22.7637 10.7034 22.7637 14.9999C22.7637 19.2587 19.2586 22.7637 14.9998 22.7637ZM14.9998 8.74362C11.5702 8.74362 8.74356 11.5326 8.74356 14.9999C8.74356 18.4296 11.5325 21.2562 14.9998 21.2562C18.4672 21.2562 21.2561 18.4672 21.2561 14.9999C21.2561 11.5703 18.4295 8.74362 14.9998 8.74362Z" fill="black"/>
<path d="M23.1032 5.23877C22.6509 5.23877 22.2364 5.42721 21.8972 5.72872C21.5957 6.03023 21.4072 6.48249 21.4072 6.93475C21.4072 7.38701 21.5957 7.80158 21.8972 8.14078C22.1987 8.44229 22.6509 8.63073 23.1032 8.63073C23.5555 8.63073 23.97 8.44229 24.3092 8.14078C24.6107 7.83927 24.7992 7.38701 24.7992 6.93475C24.7992 6.48249 24.6107 6.06792 24.3092 5.72872C24.0077 5.38952 23.5555 5.23877 23.1032 5.23877Z" fill="black"/>
</g>
<defs>
<clipPath id="clip0_2_830">
<rect width="30" height="30" fill="white"/>
</clipPath>
</defs>
</svg>
