<svg width="19" height="15" viewBox="0 0 19 15" fill="none" xmlns="http://www.w3.org/2000/svg">
<g clip-path="url(#clip0_2_1373)">
<path d="M8.46939 3.09521H7.10885V5.068H8.46939V3.09521Z" fill="black"/>
<path d="M11.0884 3.09521H9.72789V5.068H11.0884V3.09521Z" fill="black"/>
<path d="M8.46939 6.49658H7.10885V8.46937H8.46939V6.49658Z" fill="black"/>
<path d="M11.0884 6.49658H9.72789V8.46937H11.0884V6.49658Z" fill="black"/>
<path d="M8.46939 9.93188H7.10885V11.9047H8.46939V9.93188Z" fill="black"/>
<path d="M11.0884 9.93188H9.72789V11.9047H11.0884V9.93188Z" fill="black"/>
<path d="M13.9116 6.29252V0H4.31973V6.29252H0V14.966H4.31973H5.61224H12.551H13.9116H18.1293V6.29252H13.9116ZM4.21769 13.6395H1.36054V7.65306H4.21769V13.6395ZM12.551 13.6395H5.68027V1.36054H12.551V6.29252V13.6395ZM16.7687 13.6395H13.9116V7.65306H16.7687V13.6395Z" fill="black"/>
<path d="M16.0204 9.93188H14.6599V11.9047H16.0204V9.93188Z" fill="black"/>
<path d="M3.53742 9.93188H2.17688V11.9047H3.53742V9.93188Z" fill="black"/>
</g>
<defs>
<clipPath id="clip0_2_1373">
<rect width="18.1293" height="15" fill="white"/>
</clipPath>
</defs>
</svg>
