<svg width="18" height="15" viewBox="0 0 18 15" fill="none" xmlns="http://www.w3.org/2000/svg">
<g clip-path="url(#clip0_2_1362)">
<path d="M13.4831 4.98876L11.0562 7.04494V3.64045L5.62921 0L0 3.80899V15H8.89888H9.57303H17.9663V8.76404L13.4831 4.98876ZM1.34831 13.6517V4.55056L5.62921 1.65169L9.74157 4.38202V8.22472L8.89888 8.93258V13.6517H1.34831ZM16.5843 13.6517H14.0899V10.4157H12.7416V13.6517H10.2472V9.53933L13.4831 6.74157L16.5843 9.37079V13.6517Z" fill="black"/>
<path d="M4.92134 5.69653H3.57303V7.65159H4.92134V5.69653Z" fill="black"/>
<path d="M7.51686 5.69653H6.16855V7.65159H7.51686V5.69653Z" fill="black"/>
<path d="M4.92134 9.06738H3.57303V11.0224H4.92134V9.06738Z" fill="black"/>
<path d="M7.51686 9.06738H6.16855V11.0224H7.51686V9.06738Z" fill="black"/>
</g>
<defs>
<clipPath id="clip0_2_1362">
<rect width="17.9326" height="15" fill="white"/>
</clipPath>
</defs>
</svg>
