<svg width="18" height="15" viewBox="0 0 18 15" fill="none" xmlns="http://www.w3.org/2000/svg">
<g clip-path="url(#clip0_2_1388)">
<path d="M17.926 6.18834L16.1771 2.35426H12.1076L9.11435 0L6.15471 2.35426H1.74888L0 6.18834V15H5.5157H12.5448H17.926V6.18834ZM16.2108 5.65022H12.5448V3.69955H15.3027L16.2108 5.65022ZM2.62332 3.69955H5.5157V5.65022H1.71525L2.62332 3.69955ZM1.34529 13.6547V6.99552H5.5157V13.6547H1.34529ZM11.1996 13.6547H9.71973V10.426H8.37444V13.6547H6.89462V3.53139L9.14798 1.71525L11.2332 3.36323V13.6547H11.1996ZM12.5448 13.6547V6.99552H16.5807V13.6547H12.5448Z" fill="black"/>
</g>
<defs>
<clipPath id="clip0_2_1388">
<rect width="17.926" height="15" fill="white"/>
</clipPath>
</defs>
</svg>
