<svg width="20" height="15" viewBox="0 0 20 15" fill="none" xmlns="http://www.w3.org/2000/svg">
<g clip-path="url(#clip0_2_1394)">
<path d="M19.6413 4.97758L16.648 0H10.9641H8.67713H2.99327L0 4.97758H1.27803V15H18.3969V4.97758H19.6413ZM3.76682 1.34529H8.67713H10.9641H15.8744L17.2534 3.63229H10.2242H9.38341H2.38789L3.76682 1.34529ZM11.9058 13.5202H10.4933V10.426H9.14798V13.5202H7.73543V8.47534H11.9058V13.5202ZM17.0179 13.6547H13.2511V7.13005H6.39013V13.6547H2.62332V4.97758H9.41704H10.2578H17.0516V13.6547H17.0179Z" fill="black"/>
<path d="M5.21303 6.82739H3.86774V8.77807H5.21303V6.82739Z" fill="black"/>
<path d="M15.6054 6.82739H14.2601V8.77807H15.6054V6.82739Z" fill="black"/>
<path d="M5.21303 10.426H3.86774V12.3767H5.21303V10.426Z" fill="black"/>
<path d="M15.6054 10.426H14.2601V12.3767H15.6054V10.426Z" fill="black"/>
</g>
<defs>
<clipPath id="clip0_2_1394">
<rect width="19.6413" height="15" fill="white"/>
</clipPath>
</defs>
</svg>
